<svg width="128" height="56" viewBox="0 0 128 56" fill="none" xmlns="http://www.w3.org/2000/svg">
<path d="M42.4517 11.624V3.37207H59.0044V11.624H54.854V22H46.6021V11.624H42.4517ZM76.7534 17.3247V21.7559C71.659 22.8219 66.5036 22.9033 61.2871 22V3.37207H76.7534V8.04736H69.5269V10.3545H74.5562V15.0298H69.5269V17.3247H76.7534ZM96.6997 5.04443L93.2451 11.624C92.236 11.2741 91.1211 11.0991 89.9004 11.0991C88.1507 11.0991 87.2759 11.5752 87.2759 12.5273C87.2759 12.9831 87.52 13.3411 88.0083 13.6016C88.4966 13.8538 89.1924 13.98 90.0957 13.98C91.3164 13.98 92.3662 13.7603 93.2451 13.3208L96.6997 20.3765C95.7231 20.9624 94.5431 21.4303 93.1597 21.7803C91.7762 22.1302 90.4538 22.3052 89.1924 22.3052C86.0267 22.3052 83.5039 21.3937 81.624 19.5708C79.7523 17.7397 78.8164 15.4896 78.8164 12.8203C78.8164 9.99642 79.793 7.66895 81.7461 5.83789C83.6992 3.9987 86.1813 3.0791 89.1924 3.0791C90.4945 3.0791 91.8372 3.25814 93.2207 3.61621C94.6123 3.96615 95.772 4.44222 96.6997 5.04443ZM107.051 19.8027L98.7993 21.3896V3.37207H107.051V10.1958H111.25V3.37207H119.502V18.8262L111.25 19.0703V15.0786H107.051V19.8027Z" fill="#164158"/>
<path d="M42.4517 38.624V30.3721H59.0044V38.624H54.854V49H46.6021V38.624H42.4517ZM67.7324 49.8545L59.4805 49.1221L65.9502 30.3721H77.7056L84.1753 48.2676L75.9355 49.7324L74.8613 46.8271H68.8066L67.7324 49.8545ZM70.3081 42.5547H73.3599L71.834 36.8296L70.3081 42.5547ZM103.682 48.7803L96.3335 47.6816L91.5972 42.9087V46.6807L85.1885 44.8496V30.3721H91.6948L97.1392 36.4268V30.3721H103.682V48.7803ZM114.034 30.3721V36.5977C115.442 36.4919 116.512 35.8937 117.244 34.8032C117.977 33.7127 118.343 32.2357 118.343 30.3721H126.741C126.741 32.6426 126.444 34.5143 125.85 35.9873C125.256 37.4603 124.328 38.681 123.067 39.6494C125.606 41.5863 127.006 44.7031 127.266 49H118.367C118.156 44.5566 116.711 42.2902 114.034 42.2007V49H105.794V30.3721H114.034Z" fill="#164158"/>
<path d="M2.21931 30.9226C0.88991 29.7846 0.53656 27.9341 1.58 26.5293C3.44516 24.0181 7.28194 19.6906 14.6986 14C22.5988 7.93847 29.6438 3.84527 33.6123 1.7204C35.0323 0.960057 36.6261 2.16133 36.3514 3.74854L32.2168 27.6459C32.1763 27.8801 32.1778 28.1196 32.2213 28.3532L36.2186 49.8065C36.5291 51.4727 34.7588 52.7409 33.2845 51.9047C28.3838 49.1248 19.8929 44.2494 15.7123 41.5C11.4437 38.6927 5.42757 33.669 2.21931 30.9226Z" fill="#0B8896"/>
<circle cx="11.5" cy="25.5" r="2" fill="white"/>
<path d="M28.0472 29.7478C27.5176 29.362 27.496 28.5796 28.0035 28.1652L35.9484 21.6757C36.6624 21.0926 37.7181 21.704 37.5676 22.6134L36.5421 28.8117C36.5232 28.9262 36.5243 29.0432 36.5455 29.1573L37.5419 34.5301C37.7068 35.4193 36.7007 36.0532 35.9698 35.5207L28.0472 29.7478Z" fill="#FAB842"/>
<mask id="mask0_2_81" style="mask-type:alpha" maskUnits="userSpaceOnUse" x="5" y="32" width="10" height="5">
<path d="M6.5 35.5C8 35.6667 11.5 35.4 13.5 33" stroke="white" stroke-width="2" stroke-linecap="round"/>
</mask>
<g mask="url(#mask0_2_81)">
<path d="M2.59324 31.3218C1.09668 29.9986 0.853181 27.7845 2.10865 26.2307C4.49055 23.2828 8.79115 18.4402 14.5 14C20.5588 9.28761 28.4303 4.57523 32.9282 1.99848C34.3738 1.17026 36.0906 2.3986 35.8103 4.04096L31.7764 27.6755C31.7397 27.8904 31.7384 28.1098 31.7725 28.3251L35.2987 50.5751C35.5695 52.2836 33.696 53.5095 32.244 52.5691C27.0681 49.2166 17.9872 43.3248 14.5 41C11.1474 38.765 5.77173 34.1321 2.59324 31.3218Z" fill="white"/>
</g>
</svg>
